<?xml version="1.0" ?><svg viewBox="0 0 60 60" xmlns="http://www.w3.org/2000/svg"><title/><g id="text"><text font-family="MyriadPro-Regular, Myriad Pro" font-size="9" transform="translate(13.41113 67.39014)"><tspan letter-spacing="0.00401em"/><tspan x="6.02979" y="0"/><tspan letter-spacing="-0.00401em" x="10.53857" y="0"/><tspan x="14.84033" y="0"/><tspan x="-0.14404" y="10.7998"/><tspan letter-spacing="-0.007em" x="14.31006" y="10.7998"/><tspan letter-spacing="-0.00597em" x="19.18799" y="10.7998"/><tspan x="25.7583" y="10.7998"/></text></g><g id="colour"><polygon fill="#3a3a3a" points="1 59 59 59 30 9 1 59"/><circle cx="30" cy="42" fill="#2d2d2d" r="16.5"/></g><g data-name="Layer 1" id="Layer_1"><path d="M59.86524,58.4984l-29-50a1.041,1.041,0,0,0-1.73047,0l-29,50A1.0002,1.0002,0,0,0,1,60.00036H59a1.0002,1.0002,0,0,0,.86523-1.502ZM29,24.551a17.36807,17.36807,0,0,0-8.45673,2.74707L29,12.71764Zm0,2V57.4497A15.48042,15.48042,0,0,1,29,26.551Zm2,0A15.48042,15.48042,0,0,1,31,57.4497Zm0-2V12.71764l8.45673,14.58044A17.36807,17.36807,0,0,0,31,24.551ZM12.54633,41.08587c-.01587.30481-.04633.60577-.04633.91449a17.5164,17.5164,0,0,0,10.44073,16H2.73584ZM37.05927,58.00036a17.5164,17.5164,0,0,0,10.44073-16c0-.30872-.03046-.60968-.04633-.91449l9.81049,16.91449Z"/></g></svg>